<svg id="7b2d2834-e147-4d9c-87aa-d04e999e7141" data-name="xinhuaTalking-logo" xmlns="http://www.w3.org/2000/svg" xmlns:xlink="http://www.w3.org/1999/xlink" viewBox="0 0 326.01 139"><defs><linearGradient id="440f520c-052b-4de0-af29-120adf8b3094" x1="19" y1="10.92" x2="4.85" y2="99.54" gradientUnits="userSpaceOnUse"><stop offset="0.14" stop-color="#182987"/><stop offset="1" stop-color="#036eb7"/></linearGradient><linearGradient id="b4fa0414-8982-4cca-bc5e-17f5ce9bcbaa" x1="0.84" y1="110.59" x2="135.33" y2="119" gradientUnits="userSpaceOnUse"><stop offset="0" stop-color="#036eb7"/><stop offset="0.06" stop-color="#0666b1"/><stop offset="0.28" stop-color="#0e4b9f"/><stop offset="0.51" stop-color="#133891"/><stop offset="0.75" stop-color="#172d8a"/><stop offset="1" stop-color="#182987"/></linearGradient><linearGradient id="3660bcf8-734f-4819-8d48-f8b3861e3a85" x1="140.98" y1="90.8" x2="336.37" y2="4.7" gradientUnits="userSpaceOnUse"><stop offset="0" stop-color="#77c3ed"/><stop offset="0.09" stop-color="#67aedf"/><stop offset="0.26" stop-color="#4e8cc8"/><stop offset="0.44" stop-color="#3a71b7"/><stop offset="0.62" stop-color="#2b5eaa"/><stop offset="0.8" stop-color="#2353a2"/><stop offset="1" stop-color="#204fa0"/></linearGradient><linearGradient id="068409e6-9c5d-4649-91e3-5d4b2eb1ba33" x1="157.95" y1="30.03" x2="183.68" y2="18.69" xlink:href="#3660bcf8-734f-4819-8d48-f8b3861e3a85"/><linearGradient id="cbdaf2e7-69bc-436a-b826-3bb50c00b80b" x1="189.6" y1="-126.32" x2="206.82" y2="-133.91" gradientTransform="translate(-35.4 -157.47) rotate(100.15)" xlink:href="#3660bcf8-734f-4819-8d48-f8b3861e3a85"/></defs><title>cover-logo</title><polygon id="a9986365-853e-4d75-b420-cc8d7cbd0501" data-name="&lt;路径&gt;" points="0 104.94 17.17 7.73 7.98 104.94 0 104.94" style="fill:url(#440f520c-052b-4de0-af29-120adf8b3094)"/><polygon id="c89941dd-0e60-4ba3-a1a0-97873daa4242" data-name="&lt;路径&gt;" points="144.22 104.94 138.01 139 139.17 104.94 0 104.94 1.23 99.79 145.15 99.79 144.23 104.94 144.22 104.94" style="fill:url(#b4fa0414-8982-4cca-bc5e-17f5ce9bcbaa)"/><polygon id="db2f7941-09ea-4c4c-90b0-15ec33efad7a" data-name="&lt;路径&gt;" points="122.81 7.73 324.23 12.7 308.49 99.92 181.28 99.79 176.45 104.21 138.01 139 182.85 104.94 307.59 104.94 312.06 104.94 315.57 104.94 326.01 7.73 122.81 7.73" style="fill:url(#3660bcf8-734f-4819-8d48-f8b3861e3a85)"/><polygon id="0b1f0a6e-0605-4350-8ea7-5a5a4acfabaf" data-name="&lt;路径&gt;" points="25.66 51.1 34.88 51.1 28.81 76.03 19.58 76.03 25.66 51.1" style="fill:#231815"/><polygon id="6d5fc490-1a29-49a2-9789-5da5c7379fb5" data-name="&lt;路径&gt;" points="33.95 5.93 45.17 5.93 46.22 0 61.37 0 60.32 5.93 68.97 5.93 67.9 12.03 32.87 12.03 33.95 5.93" style="fill:#231815"/><polygon points="63.91 31.91 76 25.9 62.53 25.9 64.72 13.45 55.94 13.45 53.74 25.9 42.88 25.9 45.07 13.45 36.29 13.45 34.09 25.9 29.7 25.9 28.64 31.91 41.63 31.91 40.16 40.25 28.29 40.25 27.23 46.26 39.14 46.26 33.87 76.17 45.58 76.17 50.85 46.26 61.46 46.26 62.52 40.25 51.94 40.25 53.41 31.91 63.91 31.91" style="fill:#231815"/><polyline id="6791e03f-ab7c-42af-a308-d8eb1ada9809" data-name="&lt;路径&gt;" points="150.4 67.95 149.05 73.36 122.44 73.67 119.08 91.45 104.99 91.45 108.1 73.81 80.41 73.91 81.48 67.82 109.17 67.72 110.34 61.07 124.44 61.07 123.43 67.8" style="fill:#231815"/><path id="ecb5ed41-98b1-4b9d-80b3-57c2a9fd7f2a" data-name="bule2" d="M162.5,16.47l-3.57,15.79h20.2l3.57-15.79Zm4.8,12.84L169,19.42l7,5.11Z" transform="translate(-2.17 -0.14)" style="fill:url(#068409e6-9c5d-4649-91e3-5d4b2eb1ba33)"/><polygon points="132.16 19.72 129.46 35.27 111.65 35.27 110.72 40.54 128.54 40.54 125.33 59.01 133.09 59.01 138.86 59.01 145.37 19.72 132.16 19.72" style="fill:#231815"/><polygon points="115.41 21.89 110.3 21.89 98.9 21.89 89.85 21.89 89.24 27.16 97.99 27.16 92.39 59.77 103.51 59.77 109.36 27.16 109.53 27.16 115.41 21.89" style="fill:#231815"/><polygon id="b89452de-0e71-4623-bb3b-492af11128a2" data-name="&lt;路径&gt;" points="106.64 2.16 75.66 2.16 71.88 23.65 83.9 23.65 70.5 31.36 66.93 50.34 72.37 50.34 65.55 57.73 62.61 73.36 77.04 73.36 84.76 32.16 87.59 16.35 89.02 8.26 106.64 2.16" style="fill:#231815"/><polygon id="0dc1142f-ec4e-48c3-b5b9-2ff2cbb3465a" data-name="blue1" points="52.45 52.17 67.5 52.17 48.82 72.41 52.45 52.17" style="fill:url(#cbdaf2e7-69bc-436a-b826-3bb50c00b80b)"/><polygon points="308.17 20.64 298.66 20.64 293.44 40.81 302.9 40.81 308.17 20.64" style="fill:#231815"/><polygon points="289.11 32.64 291.8 17.41 279.07 17.41 276.37 32.72 270.78 39.28 270.57 20.64 261.05 20.64 261.33 40.81 269.48 40.81 257.37 55.01 269.69 55.01 282.22 40.81 288.65 55.01 300.32 55.01 300.3 54.98 302.82 55.01 305.05 50.34 297.98 50.34 289.11 32.64" style="fill:#231815"/><polygon points="181.28 35.27 145.94 35.27 145.05 40.54 159.85 40.54 144.52 127.58 163.18 111.21 175.76 40.54 181.28 35.27" style="fill:#231815"/><polygon points="300.92 87.84 294.8 87.84 291.67 80.47 295.53 80.47 300.8 60.3 291.29 60.3 288.19 72.27 280.83 54.94 267.04 74.08 266.88 60.3 257.37 60.3 257.65 80.47 262.43 80.47 253.8 92.44 265.25 92.44 278.84 73.69 286.07 92.44 292.74 92.44 298.68 92.51 300.92 87.84" style="fill:#231815"/><polygon id="e0e259b7-d4bd-4712-b6f6-4f19494adf70" data-name="&lt;路径&gt;" points="242.66 16.64 241.16 25.16 248.53 25.16 240.33 29.86 239.87 32.43 252.2 30.16 254.59 16.64 242.66 16.64" style="fill:#231815"/><polygon id="5e1dc99d-d31e-46ad-8805-230ca05690b7" data-name="&lt;路径&gt;" points="251.13 34.5 238.92 36.86 238.11 42.46 229.23 92.81 245.41 92.81 247.64 88.15 241.89 88.15 251.13 34.5" style="fill:#231815"/><polygon id="0d575de3-265c-45fc-851e-1c493c02b021" data-name="&lt;路径&gt;" points="204.55 49.67 215.69 49.55 209.25 86.69 196.04 86.82 189.19 92.89 220.62 92.77 229.18 44.14 205.55 44.14 204.55 49.67" style="fill:#231815"/><polygon points="231.73 26.69 217.72 26.71 218.91 20.02 199.97 20.02 198.78 26.74 197.54 26.74 184.93 26.68 183.59 33.04 189.45 33.01 178.09 94.55 195.22 77.09 197.94 62.39 201.93 40.23 201.96 40.24 203.23 33.04 230.79 33.04 242.37 26.79 231.73 26.69" style="fill:#231815"/><polygon id="2e1ba49f-21df-41ff-a706-751036676c42" data-name="x" points="23.83 83.18 22.19 83.18 20.35 85.39 19.73 83.18 18.03 83.18 19.21 86.51 16.08 90 17.74 90 19.74 87.67 20.41 90 22.15 90 20.87 86.46 23.83 83.18" style="fill:#231815"/><polygon id="0074649c-883f-4b28-936a-af2ba0302a5e" data-name="i0" points="24.71 83.18 22.89 90 24.32 90 26.14 83.18 24.71 83.18" style="fill:#231815"/><polygon id="94b794c3-df8d-4153-b272-c0b2f91891c8" data-name="n" points="31.63 83.18 30.34 87.93 28.91 83.18 27.4 83.18 25.58 90 26.91 90 28.23 85.13 29.71 90 31.14 90 32.96 83.18 31.63 83.18" style="fill:#231815"/><polygon id="b258900a-69a2-495f-9e66-fad5d14036ce" data-name="h" points="37.68 85.75 35.02 85.75 35.71 83.18 34.28 83.18 32.46 90 33.88 90 34.71 86.93 37.37 86.93 36.54 90 37.97 90 39.8 83.18 38.37 83.18 37.68 85.75" style="fill:#231815"/><path id="744cdf75-0401-45f9-a858-55ba4a08d280" data-name="u" d="M47.37,83.32l-1.2,4.49a1.61,1.61,0,0,1-1.73,1.3.9.9,0,0,1-.78-.35,1.19,1.19,0,0,1-.07-1l1.18-4.42H43.33l-1.21,4.52a2.07,2.07,0,0,0,.09,1.65,1.65,1.65,0,0,0,.9.67,3.22,3.22,0,0,0,1,.15,3.8,3.8,0,0,0,2.22-.61,3.33,3.33,0,0,0,1.27-2l1.19-4.43Z" transform="translate(-2.17 -0.14)" style="fill:#231815"/><path id="60f50b09-f88e-4e29-80ff-84d6c4f4e8e3" data-name="a2" d="M52.14,83.32l-4.27,6.81h1.5l.85-1.41h2.52l.06,1.41h1.55l-.56-6.81Zm-1.22,4.23,1.61-2.69.13,2.69Z" transform="translate(-2.17 -0.14)" style="fill:#231815"/><polygon id="a62a468c-307a-4692-833f-72386dee8700" data-name="t" points="62.51 83.18 56.97 83.18 56.64 84.39 58.7 84.39 57.2 90 58.63 90 60.13 84.39 62.19 84.39 62.51 83.18" style="fill:#231815"/><path id="8e08adda-5bdb-484c-8679-cfd832857d4c" data-name="a" d="M67.44,83.32l-4.27,6.81h1.5l.85-1.41H68l.06,1.41h1.55l-.56-6.81Zm-1.22,4.23,1.61-2.69L68,87.55Z" transform="translate(-2.17 -0.14)" style="fill:#231815"/><polygon id="86837307-0aa5-4ef9-a3f4-2fdd001bce0d" data-name="k" points="71.65 83.18 70.22 83.18 68.39 90 73.21 90 73.54 88.76 70.15 88.76 71.65 83.18" style="fill:#231815"/><polygon id="093f2caf-a539-4f14-983b-7002c14a1460" data-name="k" points="82 83.18 80.16 83.18 76.82 85.95 77.56 83.18 76.13 83.18 74.31 90 75.73 90 76.35 87.69 77.2 87 78.51 90 80.34 90 78.47 85.97 82 83.18" style="fill:#231815"/><polygon id="e5161486-3c2f-472c-be3a-e1b19bdeaf0a" data-name="i1" points="82.77 83.18 80.95 90 82.37 90 84.2 83.18 82.77 83.18" style="fill:#231815"/><polygon id="0e3b1c40-a01d-4b15-9e12-a0da3e3af306" data-name="n" points="89.69 83.18 88.4 87.93 86.97 83.18 85.46 83.18 83.64 90 84.97 90 86.29 85.13 87.77 90 89.2 90 91.02 83.18 89.69 83.18" style="fill:#231815"/><path id="57686b2f-576c-4d3e-9c13-4e23c00b98b2" data-name="g" d="M95.89,84.89a2.29,2.29,0,0,1,1.51-.57,1.18,1.18,0,0,1,1,.46.77.77,0,0,1,.19.65H100a1.6,1.6,0,0,0-.31-1.5,2.51,2.51,0,0,0-2.07-.79,4,4,0,0,0-2.83,1.11,5.1,5.1,0,0,0-1.47,2.5,3.11,3.11,0,0,0,.23,2.69,2.23,2.23,0,0,0,1.95.88A3.12,3.12,0,0,0,97,90a5,5,0,0,0,.91-.67l-.09.86h1l1-3.68H96.92l-.31,1.15H98.2A2.66,2.66,0,0,1,97,88.88a1.92,1.92,0,0,1-.89.23,1.48,1.48,0,0,1-1.23-.47,2.1,2.1,0,0,1-.13-1.87A3.6,3.6,0,0,1,95.89,84.89Z" transform="translate(-2.17 -0.14)" style="fill:#231815"/></svg>